<svg width="112" height="27" viewBox="0 0 112 27" fill="none" xmlns="http://www.w3.org/2000/svg">
<path d="M0.264 9.88C0.936 10 1.884 10.12 2.808 10.12C4.836 10.12 6.624 8.632 6.624 5.452C6.624 2.692 5.22 0.879999 2.64 0.879999C1.74 0.879999 1.008 0.999999 0.264 1.12V1.156C0.66 1.336 0.852 1.792 0.852 2.176V8.824C0.852 9.316 0.66 9.664 0.264 9.844V9.88ZM2.004 2.236C2.004 1.528 2.292 1.168 2.928 1.168C4.464 1.168 5.304 2.872 5.304 5.716C5.304 8.68 4.476 9.82 2.988 9.82C2.34 9.82 2.004 9.388 2.004 8.656V2.236ZM11.4132 8.404L11.3532 8.38C11.0652 8.968 10.5252 9.304 9.91322 9.304C8.84522 9.304 8.28122 8.14 8.28122 6.604C8.28122 6.52 8.28122 6.436 8.28122 6.364H11.4852V6.172C11.4852 4.816 10.7292 3.784 9.63722 3.784C8.25722 3.784 7.21322 5.344 7.21322 7.252C7.21322 9.112 8.25722 10.18 9.40922 10.18C10.3092 10.18 11.0892 9.556 11.4132 8.404ZM9.39722 4.048C9.98522 4.048 10.3572 4.828 10.3692 6.112H8.29322C8.38922 4.72 8.85722 4.048 9.39722 4.048ZM15.643 5.344C15.883 4.6 16.159 4.144 16.387 4V3.964H15.115V4C15.355 4.144 15.583 4.588 15.367 5.236L14.335 8.44L13.219 5.176C13.027 4.624 13.171 4.228 13.507 4V3.964H11.371V4C11.611 4.144 11.779 4.408 12.055 5.164L13.843 10.12H14.011L15.643 5.344ZM20.3663 8.404L20.3063 8.38C20.0183 8.968 19.4783 9.304 18.8663 9.304C17.7983 9.304 17.2343 8.14 17.2343 6.604C17.2343 6.52 17.2343 6.436 17.2343 6.364H20.4383V6.172C20.4383 4.816 19.6823 3.784 18.5903 3.784C17.2103 3.784 16.1663 5.344 16.1663 7.252C16.1663 9.112 17.2103 10.18 18.3623 10.18C19.2623 10.18 20.0423 9.556 20.3663 8.404ZM18.3503 4.048C18.9383 4.048 19.3103 4.828 19.3223 6.112H17.2463C17.3423 4.72 17.8103 4.048 18.3503 4.048ZM22.341 0.52H22.293C21.969 0.879999 21.333 1.156 20.817 1.156V1.192C21.081 1.36 21.261 1.744 21.261 2.188V8.992C21.261 9.46 21.117 9.784 20.865 9.964V10H22.749V9.964C22.485 9.796 22.341 9.46 22.341 8.992V0.52ZM23.233 6.964C23.233 8.692 24.301 10.18 25.597 10.18C26.905 10.18 27.973 8.704 27.973 6.964C27.973 5.236 26.941 3.784 25.597 3.784C24.277 3.784 23.233 5.248 23.233 6.964ZM24.409 6.964C24.409 5.236 24.805 4.012 25.597 4.012C26.413 4.012 26.785 5.236 26.785 6.964C26.785 8.704 26.365 9.952 25.597 9.952C24.829 9.952 24.409 8.704 24.409 6.964ZM30.3662 12.364C30.1022 12.196 29.9342 11.944 29.9342 11.404V9.964C30.1742 10.036 30.4142 10.108 30.7262 10.108C32.4182 10.108 33.4022 8.332 33.4022 6.496C33.4022 4.948 32.6342 3.784 31.6382 3.784C30.9302 3.784 30.3422 4.396 29.9342 4.996L29.9222 4.984V3.784H29.8862C29.5502 4.144 28.9502 4.42 28.4342 4.42V4.456C28.7582 4.624 28.8782 4.912 28.8782 5.452V11.404C28.8782 11.944 28.7102 12.196 28.4582 12.364V12.4H30.3662V12.364ZM29.9342 8.992V5.128C30.3302 4.708 30.6062 4.54 30.9902 4.54C31.7582 4.54 32.2622 5.392 32.2742 6.916C32.2862 8.632 31.5782 9.904 30.6902 9.904C30.2222 9.904 29.9342 9.58 29.9342 8.992ZM33.9311 9.964V10H35.8991V9.964C35.6111 9.712 35.4551 9.4 35.4551 9.004V5.284C35.9831 4.744 36.4751 4.564 36.7871 4.564C37.2311 4.564 37.4351 4.924 37.4351 5.428V9.004C37.4351 9.4 37.2911 9.712 36.9911 9.964V10H38.9111V9.964C38.6351 9.712 38.4911 9.4 38.4911 8.992V5.284C39.0071 4.744 39.4991 4.564 39.8111 4.564C40.2551 4.564 40.4591 4.924 40.4591 5.428V9.004C40.4591 9.4 40.3151 9.712 40.0151 9.964V10H41.9231V9.964C41.6591 9.748 41.5151 9.412 41.5151 8.992V5.044C41.5151 4.312 41.1311 3.784 40.4471 3.784C39.7871 3.784 38.9831 4.468 38.5031 5.14L38.4911 5.032C38.4911 4.312 38.0831 3.784 37.4231 3.784C36.7511 3.784 35.9471 4.468 35.4551 5.14L35.4431 5.128C35.4551 4.996 35.4551 4.768 35.4551 4.54V3.784H35.4311C35.0831 4.156 34.4591 4.42 33.9311 4.42V4.456C34.2671 4.636 34.4111 4.876 34.4111 5.38V8.992C34.4111 9.4 34.2191 9.724 33.9311 9.964ZM46.6046 8.404L46.5446 8.38C46.2566 8.968 45.7166 9.304 45.1046 9.304C44.0366 9.304 43.4726 8.14 43.4726 6.604C43.4726 6.52 43.4726 6.436 43.4726 6.364H46.6766V6.172C46.6766 4.816 45.9206 3.784 44.8286 3.784C43.4486 3.784 42.4046 5.344 42.4046 7.252C42.4046 9.112 43.4486 10.18 44.6006 10.18C45.5006 10.18 46.2806 9.556 46.6046 8.404ZM44.5886 4.048C45.1766 4.048 45.5486 4.828 45.5606 6.112H43.4846C43.5806 4.72 44.0486 4.048 44.5886 4.048ZM47.103 9.964V10H49.083V9.964C48.795 9.712 48.639 9.4 48.639 9.004V5.284C49.167 4.744 49.659 4.564 49.959 4.564C50.403 4.564 50.619 4.924 50.619 5.428V9.004C50.619 9.4 50.463 9.712 50.175 9.964V10H52.059V9.964C51.807 9.748 51.675 9.4 51.675 8.992V5.044C51.675 4.312 51.267 3.784 50.607 3.784C49.923 3.784 49.119 4.468 48.627 5.14L48.615 5.128C48.627 4.996 48.639 4.768 48.639 4.54V3.784H48.603C48.255 4.156 47.631 4.42 47.103 4.42V4.456C47.439 4.636 47.583 4.876 47.583 5.38V8.992C47.583 9.4 47.391 9.724 47.103 9.964ZM52.9968 9.028C52.9968 9.76 53.4648 10.18 54.0648 10.18C54.7128 10.18 55.2648 9.76 55.6608 9.232L55.6248 9.196C55.3248 9.436 55.0368 9.568 54.7128 9.568C54.3168 9.568 54.1128 9.304 54.1128 8.86V4.288H55.4328V3.964H54.1128V2.236H54.0648C53.6808 3.112 53.0688 3.808 52.2408 4.228V4.288H52.9968V9.028ZM62.3544 8.812C62.6304 9.232 62.6544 9.712 62.3184 9.964V10H64.6584V9.964C64.4184 9.772 64.1544 9.472 63.7224 8.812L62.2464 6.604C62.3784 5.704 62.7744 5.104 63.0624 5.104C63.3864 5.104 63.4704 5.764 63.9624 5.764C64.2384 5.764 64.4784 5.548 64.4784 5.176C64.4784 4.732 64.1064 4.396 63.6744 4.396C62.9064 4.396 62.2584 5.272 62.0664 6.34L60.7464 4.372C60.2904 3.7 59.8944 3.112 59.8944 2.404C59.8944 1.732 60.2304 1.3 60.6744 1.3C61.3344 1.3 61.2504 2.488 62.0064 2.488C62.3304 2.488 62.5344 2.2 62.5344 1.864C62.5344 1.288 61.9584 0.844 61.2624 0.844C59.9664 0.844 59.1264 1.804 59.1264 3.088C59.1264 3.64 59.3544 4.204 59.6184 4.684C58.5744 5.116 57.5664 6.184 57.5664 7.708C57.5664 9.16 58.4664 10.18 59.5344 10.18C60.4584 10.18 61.3824 9.52 61.9104 8.14L62.3544 8.812ZM58.5864 7.228C58.5864 6.22 58.9104 5.356 59.7024 4.816C59.7384 4.876 59.7624 4.924 59.7984 4.972L61.8264 8.008C61.2864 8.908 60.6624 9.244 60.0384 9.244C59.1384 9.244 58.5864 8.416 58.5864 7.228ZM69.2717 9.964C68.8637 9.784 68.6717 9.388 68.6717 8.872V6.58C68.9477 6.688 69.2597 6.748 69.5957 6.748C70.8557 6.748 72.4517 5.752 72.4517 3.7C72.4517 2.02 71.2637 0.879999 69.4277 0.879999C68.6957 0.879999 67.8317 0.987999 66.9437 1.12V1.156C67.3397 1.336 67.5317 1.696 67.5317 2.176V8.872C67.5317 9.388 67.3517 9.784 66.9437 9.964V10H69.2717V9.964ZM68.6717 2.14C68.6717 1.492 68.9597 1.132 69.5477 1.132C70.5557 1.132 71.1917 2.236 71.1917 3.868C71.1917 5.524 70.4237 6.46 69.2837 6.46C69.0797 6.46 68.8877 6.436 68.6717 6.376V2.14ZM74.209 4.576V3.784H74.185C73.837 4.144 73.213 4.42 72.685 4.42V4.456C73.021 4.636 73.165 4.876 73.165 5.38V8.992C73.165 9.4 72.961 9.736 72.685 9.964V10H74.665V9.964C74.401 9.736 74.209 9.4 74.209 8.992V5.368C74.425 4.948 74.641 4.696 74.881 4.696C75.193 4.696 75.361 5.152 75.757 5.152C76.045 5.152 76.297 4.9 76.297 4.516C76.297 4.108 75.973 3.784 75.613 3.784C75.061 3.784 74.437 4.432 74.209 5.164H74.197C74.197 5.032 74.209 4.792 74.209 4.576ZM76.2369 6.964C76.2369 8.692 77.3049 10.18 78.6009 10.18C79.9089 10.18 80.9769 8.704 80.9769 6.964C80.9769 5.236 79.9449 3.784 78.6009 3.784C77.2809 3.784 76.2369 5.248 76.2369 6.964ZM77.4129 6.964C77.4129 5.236 77.8089 4.012 78.6009 4.012C79.4169 4.012 79.7889 5.236 79.7889 6.964C79.7889 8.704 79.3689 9.952 78.6009 9.952C77.8329 9.952 77.4129 8.704 77.4129 6.964ZM81.4858 9.964V10H83.4538V9.964C83.1658 9.712 83.0098 9.4 83.0098 9.004V5.284C83.5378 4.744 84.0298 4.564 84.3418 4.564C84.7858 4.564 84.9898 4.924 84.9898 5.428V9.004C84.9898 9.4 84.8458 9.712 84.5458 9.964V10H86.4658V9.964C86.1898 9.712 86.0458 9.4 86.0458 8.992V5.284C86.5618 4.744 87.0538 4.564 87.3658 4.564C87.8098 4.564 88.0138 4.924 88.0138 5.428V9.004C88.0138 9.4 87.8698 9.712 87.5698 9.964V10H89.4778V9.964C89.2138 9.748 89.0698 9.412 89.0698 8.992V5.044C89.0698 4.312 88.6858 3.784 88.0018 3.784C87.3418 3.784 86.5378 4.468 86.0578 5.14L86.0458 5.032C86.0458 4.312 85.6378 3.784 84.9778 3.784C84.3058 3.784 83.5018 4.468 83.0098 5.14L82.9978 5.128C83.0098 4.996 83.0098 4.768 83.0098 4.54V3.784H82.9858C82.6378 4.156 82.0138 4.42 81.4858 4.42V4.456C81.8218 4.636 81.9658 4.876 81.9658 5.38V8.992C81.9658 9.4 81.7738 9.724 81.4858 9.964ZM89.9713 6.964C89.9713 8.692 91.0393 10.18 92.3353 10.18C93.6433 10.18 94.7113 8.704 94.7113 6.964C94.7113 5.236 93.6793 3.784 92.3353 3.784C91.0153 3.784 89.9713 5.248 89.9713 6.964ZM91.1473 6.964C91.1473 5.236 91.5433 4.012 92.3353 4.012C93.1513 4.012 93.5233 5.236 93.5233 6.964C93.5233 8.704 93.1033 9.952 92.3353 9.952C91.5673 9.952 91.1473 8.704 91.1473 6.964ZM95.6882 9.028C95.6882 9.76 96.1562 10.18 96.7562 10.18C97.4042 10.18 97.9562 9.76 98.3522 9.232L98.3162 9.196C98.0162 9.436 97.7282 9.568 97.4042 9.568C97.0082 9.568 96.8042 9.304 96.8042 8.86V4.288H98.1242V3.964H96.8042V2.236H96.7562C96.3722 3.112 95.7602 3.808 94.9322 4.228V4.288H95.6882V9.028ZM99.332 2.932C99.716 2.932 100.016 2.584 100.016 2.176C100.016 1.744 99.716 1.408 99.332 1.408C98.96 1.408 98.672 1.744 98.672 2.176C98.672 2.584 98.96 2.932 99.332 2.932ZM98.444 10H100.328V9.964C100.088 9.808 99.956 9.46 99.956 8.992V3.784H99.932C99.584 4.132 98.96 4.42 98.432 4.42V4.456C98.792 4.624 98.876 5.056 98.876 5.452V8.992C98.876 9.46 98.72 9.796 98.444 9.964V10ZM100.87 6.964C100.87 8.692 101.938 10.18 103.234 10.18C104.542 10.18 105.61 8.704 105.61 6.964C105.61 5.236 104.578 3.784 103.234 3.784C101.914 3.784 100.87 5.248 100.87 6.964ZM102.046 6.964C102.046 5.236 102.442 4.012 103.234 4.012C104.05 4.012 104.422 5.236 104.422 6.964C104.422 8.704 104.002 9.952 103.234 9.952C102.466 9.952 102.046 8.704 102.046 6.964ZM106.119 9.964V10H108.099V9.964C107.811 9.712 107.655 9.4 107.655 9.004V5.284C108.183 4.744 108.675 4.564 108.975 4.564C109.419 4.564 109.635 4.924 109.635 5.428V9.004C109.635 9.4 109.479 9.712 109.191 9.964V10H111.075V9.964C110.823 9.748 110.691 9.4 110.691 8.992V5.044C110.691 4.312 110.283 3.784 109.623 3.784C108.939 3.784 108.135 4.468 107.643 5.14L107.631 5.128C107.643 4.996 107.655 4.768 107.655 4.54V3.784H107.619C107.271 4.156 106.647 4.42 106.119 4.42V4.456C106.455 4.636 106.599 4.876 106.599 5.38V8.992C106.599 9.4 106.407 9.724 106.119 9.964ZM1.032 23.328C1.296 23.784 1.716 24.132 2.424 24.132C4.14 24.132 5.1 22.344 5.1 20.496C5.1 18.948 4.332 17.784 3.336 17.784C2.628 17.784 2.028 18.384 1.62 18.984V18.972C1.632 18.804 1.632 18.516 1.632 18.3V14.52H1.596C1.248 14.88 0.636 15.156 0.132 15.156V15.192C0.408 15.36 0.576 15.708 0.576 16.188V24.084H0.612L1.032 23.328ZM3.984 20.916C3.996 22.644 3.276 23.928 2.376 23.928C1.92 23.928 1.632 23.592 1.632 22.992V19.128C2.04 18.696 2.316 18.54 2.712 18.552C3.468 18.552 3.972 19.404 3.984 20.916ZM7.51659 24.552L9.36459 19.188C9.52059 18.768 9.80859 18.132 10.0606 18V17.964H8.80059V18C9.08859 18.216 9.24459 18.648 9.05259 19.176L7.97259 22.344L6.88059 19.176C6.67659 18.588 6.84459 18.204 7.16859 18V17.964H5.02059V18C5.27259 18.156 5.45259 18.444 5.71659 19.176L7.43259 23.916L7.25259 24.456C6.97659 25.332 6.58059 25.944 6.06459 25.956C5.53659 25.956 5.64459 25.092 5.08059 25.092C4.81659 25.092 4.60059 25.344 4.60059 25.68C4.60059 26.148 5.09259 26.508 5.69259 26.508C6.54459 26.508 7.09659 25.776 7.51659 24.552ZM11.7835 23.88C12.4555 24 13.4035 24.12 14.3275 24.12C16.3555 24.12 18.1435 22.632 18.1435 19.452C18.1435 16.692 16.7395 14.88 14.1595 14.88C13.2595 14.88 12.5275 15 11.7835 15.12V15.156C12.1795 15.336 12.3715 15.792 12.3715 16.176V22.824C12.3715 23.316 12.1795 23.664 11.7835 23.844V23.88ZM13.5235 16.236C13.5235 15.528 13.8115 15.168 14.4475 15.168C15.9835 15.168 16.8235 16.872 16.8235 19.716C16.8235 22.68 15.9955 23.82 14.5075 23.82C13.8595 23.82 13.5235 23.388 13.5235 22.656V16.236ZM22.9328 22.404L22.8728 22.38C22.5848 22.968 22.0448 23.304 21.4328 23.304C20.3648 23.304 19.8008 22.14 19.8008 20.604C19.8008 20.52 19.8008 20.436 19.8008 20.364H23.0048V20.172C23.0048 18.816 22.2488 17.784 21.1568 17.784C19.7768 17.784 18.7328 19.344 18.7328 21.252C18.7328 23.112 19.7768 24.18 20.9288 24.18C21.8288 24.18 22.6088 23.556 22.9328 22.404ZM20.9168 18.048C21.5048 18.048 21.8768 18.828 21.8888 20.112H19.8128C19.9088 18.72 20.3768 18.048 20.9168 18.048ZM23.4311 23.964V24H25.4111V23.964C25.1231 23.712 24.9671 23.4 24.9671 23.004V19.284C25.4951 18.744 25.9871 18.564 26.2871 18.564C26.7311 18.564 26.9471 18.924 26.9471 19.428V23.004C26.9471 23.4 26.7911 23.712 26.5031 23.964V24H28.3871V23.964C28.1351 23.748 28.0031 23.4 28.0031 22.992V19.044C28.0031 18.312 27.5951 17.784 26.9351 17.784C26.2511 17.784 25.4471 18.468 24.9551 19.14L24.9431 19.128C24.9551 18.996 24.9671 18.768 24.9671 18.54V17.784H24.9311C24.5831 18.156 23.9591 18.42 23.4311 18.42V18.456C23.7671 18.636 23.9111 18.876 23.9111 19.38V22.992C23.9111 23.4 23.7191 23.724 23.4311 23.964ZM29.7929 16.932C30.1769 16.932 30.4769 16.584 30.4769 16.176C30.4769 15.744 30.1769 15.408 29.7929 15.408C29.4209 15.408 29.1329 15.744 29.1329 16.176C29.1329 16.584 29.4209 16.932 29.7929 16.932ZM28.9049 24H30.7889V23.964C30.5489 23.808 30.4169 23.46 30.4169 22.992V17.784H30.3929C30.0449 18.132 29.4209 18.42 28.8929 18.42V18.456C29.2529 18.624 29.3369 19.056 29.3369 19.452V22.992C29.3369 23.46 29.1809 23.796 28.9049 23.964V24ZM35.0747 22.188C35.0747 21.144 34.3187 20.76 33.5867 20.436C32.8907 20.112 32.2067 19.86 32.2067 19.128C32.2067 18.576 32.5547 18.072 33.1667 18.072C33.7187 18.072 34.1867 18.552 34.3307 19.404H34.3667L34.7387 17.952C34.3667 17.844 33.9707 17.784 33.5747 17.784C32.3267 17.784 31.4507 18.588 31.4507 19.656C31.4507 20.724 32.1947 21.12 32.9267 21.456C33.6227 21.756 34.3187 22.02 34.3187 22.764C34.3187 23.46 33.8747 23.892 33.2147 23.892C32.4347 23.892 31.8827 23.304 31.6907 22.212H31.6427L31.0547 23.844C31.7267 24.072 32.3387 24.168 32.8547 24.168C34.1147 24.168 35.0747 23.448 35.0747 22.188ZM39.7287 23.964C39.3807 23.796 39.1287 23.436 39.1287 22.872V20.004L39.7767 19.164L41.4807 22.716C41.7447 23.268 41.8407 23.592 41.4087 23.952V24H43.6167V23.952C43.4127 23.808 43.0767 23.352 42.8247 22.848L40.5567 18.156L41.6367 16.764C42.2967 15.924 42.9807 15.324 43.4487 15.036V15H41.4687V15.036C41.8887 15.312 41.9127 15.948 41.4567 16.536L39.1287 19.56V16.128C39.1287 15.672 39.3207 15.216 39.7287 15.036V15H37.4007V15.036C37.8087 15.216 37.9887 15.672 37.9887 16.128V22.872C37.9887 23.436 37.7367 23.796 37.4007 23.964V24H39.7287V23.964ZM46.9365 23.376V24.18H46.9725C47.3925 23.88 47.9325 23.736 48.4605 23.736V23.7C48.1365 23.52 47.9925 23.256 47.9925 22.728V17.784H47.9565C47.6205 18.144 47.0205 18.42 46.5045 18.42V18.456C46.8165 18.624 46.9365 18.9 46.9365 19.428V22.632C46.4085 23.172 45.9285 23.4 45.6165 23.4C45.1725 23.4 44.9685 23.04 44.9685 22.536V17.784H44.9325C44.5965 18.144 43.9965 18.42 43.4805 18.42V18.456C43.7805 18.624 43.9245 18.9 43.9245 19.428V22.92C43.9245 23.652 44.2965 24.18 44.9685 24.18C45.6645 24.18 46.4565 23.436 46.9485 22.764H46.9605C46.9485 22.908 46.9365 23.148 46.9365 23.376ZM48.9077 23.964V24H50.8877V23.964C50.5997 23.712 50.4437 23.4 50.4437 23.004V19.284C50.9717 18.744 51.4637 18.564 51.7637 18.564C52.2077 18.564 52.4237 18.924 52.4237 19.428V23.004C52.4237 23.4 52.2677 23.712 51.9797 23.964V24H53.8637V23.964C53.6117 23.748 53.4797 23.4 53.4797 22.992V19.044C53.4797 18.312 53.0717 17.784 52.4117 17.784C51.7277 17.784 50.9237 18.468 50.4317 19.14L50.4197 19.128C50.4317 18.996 50.4437 18.768 50.4437 18.54V17.784H50.4077C50.0597 18.156 49.4357 18.42 48.9077 18.42V18.456C49.2437 18.636 49.3877 18.876 49.3877 19.38V22.992C49.3877 23.4 49.1957 23.724 48.9077 23.964ZM55.2695 16.932C55.6535 16.932 55.9535 16.584 55.9535 16.176C55.9535 15.744 55.6535 15.408 55.2695 15.408C54.8975 15.408 54.6095 15.744 54.6095 16.176C54.6095 16.584 54.8975 16.932 55.2695 16.932ZM54.3815 24H56.2655V23.964C56.0255 23.808 55.8935 23.46 55.8935 22.992V17.784H55.8695C55.5215 18.132 54.8975 18.42 54.3695 18.42V18.456C54.7295 18.624 54.8135 19.056 54.8135 19.452V22.992C54.8135 23.46 54.6575 23.796 54.3815 23.964V24ZM57.2273 23.028C57.2273 23.76 57.6953 24.18 58.2952 24.18C58.9433 24.18 59.4953 23.76 59.8913 23.232L59.8553 23.196C59.5553 23.436 59.2673 23.568 58.9433 23.568C58.5473 23.568 58.3433 23.304 58.3433 22.86V18.288H59.6633V17.964H58.3433V16.236H58.2952C57.9113 17.112 57.2993 17.808 56.4712 18.228V18.288H57.2273V23.028ZM63.727 22.188C63.727 21.144 62.971 20.76 62.239 20.436C61.543 20.112 60.859 19.86 60.859 19.128C60.859 18.576 61.207 18.072 61.819 18.072C62.371 18.072 62.839 18.552 62.983 19.404H63.019L63.391 17.952C63.019 17.844 62.623 17.784 62.227 17.784C60.979 17.784 60.103 18.588 60.103 19.656C60.103 20.724 60.847 21.12 61.579 21.456C62.275 21.756 62.971 22.02 62.971 22.764C62.971 23.46 62.527 23.892 61.867 23.892C61.087 23.892 60.535 23.304 60.343 22.212H60.295L59.707 23.844C60.379 24.072 60.991 24.168 61.507 24.168C62.767 24.168 63.727 23.448 63.727 22.188ZM65.9346 24.552L67.7826 19.188C67.9386 18.768 68.2266 18.132 68.4786 18V17.964H67.2186V18C67.5066 18.216 67.6626 18.648 67.4706 19.176L66.3906 22.344L65.2986 19.176C65.0946 18.588 65.2626 18.204 65.5866 18V17.964H63.4386V18C63.6906 18.156 63.8706 18.444 64.1346 19.176L65.8506 23.916L65.6706 24.456C65.3946 25.332 64.9986 25.944 64.4826 25.956C63.9546 25.956 64.0626 25.092 63.4986 25.092C63.2346 25.092 63.0186 25.344 63.0186 25.68C63.0186 26.148 63.5106 26.508 64.1106 26.508C64.9626 26.508 65.5146 25.776 65.9346 24.552ZM68.4194 23.964V24H70.3994V23.964C70.1114 23.712 69.9554 23.4 69.9554 23.004V19.284C70.4834 18.744 70.9754 18.564 71.2754 18.564C71.7194 18.564 71.9354 18.924 71.9354 19.428V23.004C71.9354 23.4 71.7794 23.712 71.4914 23.964V24H73.3754V23.964C73.1234 23.748 72.9914 23.4 72.9914 22.992V19.044C72.9914 18.312 72.5834 17.784 71.9234 17.784C71.2394 17.784 70.4354 18.468 69.9434 19.14L69.9314 19.128C69.9434 18.996 69.9554 18.768 69.9554 18.54V17.784H69.9194C69.5714 18.156 68.9474 18.42 68.4194 18.42V18.456C68.7554 18.636 68.8994 18.876 68.8994 19.38V22.992C68.8994 23.4 68.7074 23.724 68.4194 23.964Z" fill="black"/>
</svg>
