<svg width="167" height="41" viewBox="0 0 167 41" fill="none" xmlns="http://www.w3.org/2000/svg">
<path d="M0.396 14.82C1.404 15 2.826 15.18 4.212 15.18C7.254 15.18 9.936 12.948 9.936 8.178C9.936 4.038 7.83 1.32 3.96 1.32C2.61 1.32 1.512 1.5 0.396 1.68V1.734C0.99 2.004 1.278 2.688 1.278 3.264V13.236C1.278 13.974 0.99 14.496 0.396 14.766V14.82ZM3.006 3.354C3.006 2.292 3.438 1.752 4.392 1.752C6.696 1.752 7.956 4.308 7.956 8.574C7.956 13.02 6.714 14.73 4.482 14.73C3.51 14.73 3.006 14.082 3.006 12.984V3.354ZM17.1198 12.606L17.0298 12.57C16.5978 13.452 15.7878 13.956 14.8698 13.956C13.2678 13.956 12.4218 12.21 12.4218 9.906C12.4218 9.78 12.4218 9.654 12.4218 9.546H17.2278V9.258C17.2278 7.224 16.0938 5.676 14.4558 5.676C12.3858 5.676 10.8198 8.016 10.8198 10.878C10.8198 13.668 12.3858 15.27 14.1138 15.27C15.4638 15.27 16.6338 14.334 17.1198 12.606ZM14.0958 6.072C14.9778 6.072 15.5358 7.242 15.5538 9.168H12.4398C12.5838 7.08 13.2858 6.072 14.0958 6.072ZM23.4645 8.016C23.8245 6.9 24.2385 6.216 24.5805 6V5.946H22.6725V6C23.0325 6.216 23.3745 6.882 23.0505 7.854L21.5025 12.66L19.8285 7.764C19.5405 6.936 19.7565 6.342 20.2605 6V5.946H17.0565V6C17.4165 6.216 17.6685 6.612 18.0825 7.746L20.7645 15.18H21.0165L23.4645 8.016ZM30.5495 12.606L30.4595 12.57C30.0275 13.452 29.2175 13.956 28.2995 13.956C26.6975 13.956 25.8515 12.21 25.8515 9.906C25.8515 9.78 25.8515 9.654 25.8515 9.546H30.6575V9.258C30.6575 7.224 29.5235 5.676 27.8855 5.676C25.8155 5.676 24.2495 8.016 24.2495 10.878C24.2495 13.668 25.8155 15.27 27.5435 15.27C28.8935 15.27 30.0635 14.334 30.5495 12.606ZM27.5255 6.072C28.4075 6.072 28.9655 7.242 28.9835 9.168H25.8695C26.0135 7.08 26.7155 6.072 27.5255 6.072ZM33.5115 0.78H33.4395C32.9535 1.32 31.9995 1.734 31.2255 1.734V1.788C31.6215 2.04 31.8915 2.616 31.8915 3.282V13.488C31.8915 14.19 31.6755 14.676 31.2975 14.946V15H34.1235V14.946C33.7275 14.694 33.5115 14.19 33.5115 13.488V0.78ZM34.8495 10.446C34.8495 13.038 36.4515 15.27 38.3955 15.27C40.3575 15.27 41.9595 13.056 41.9595 10.446C41.9595 7.854 40.4115 5.676 38.3955 5.676C36.4155 5.676 34.8495 7.872 34.8495 10.446ZM36.6135 10.446C36.6135 7.854 37.2075 6.018 38.3955 6.018C39.6195 6.018 40.1775 7.854 40.1775 10.446C40.1775 13.056 39.5475 14.928 38.3955 14.928C37.2435 14.928 36.6135 13.056 36.6135 10.446ZM45.5493 18.546C45.1533 18.294 44.9013 17.916 44.9013 17.106V14.946C45.2613 15.054 45.6213 15.162 46.0893 15.162C48.6273 15.162 50.1033 12.498 50.1033 9.744C50.1033 7.422 48.9513 5.676 47.4573 5.676C46.3953 5.676 45.5133 6.594 44.9013 7.494L44.8833 7.476V5.676H44.8293C44.3253 6.216 43.4253 6.63 42.6513 6.63V6.684C43.1373 6.936 43.3173 7.368 43.3173 8.178V17.106C43.3173 17.916 43.0653 18.294 42.6873 18.546V18.6H45.5493V18.546ZM44.9013 13.488V7.692C45.4953 7.062 45.9093 6.81 46.4853 6.81C47.6373 6.81 48.3933 8.088 48.4113 10.374C48.4293 12.948 47.3673 14.856 46.0353 14.856C45.3333 14.856 44.9013 14.37 44.9013 13.488ZM50.8967 14.946V15H53.8487V14.946C53.4167 14.568 53.1827 14.1 53.1827 13.506V7.926C53.9747 7.116 54.7127 6.846 55.1807 6.846C55.8467 6.846 56.1527 7.386 56.1527 8.142V13.506C56.1527 14.1 55.9367 14.568 55.4867 14.946V15H58.3667V14.946C57.9527 14.568 57.7367 14.1 57.7367 13.488V7.926C58.5107 7.116 59.2487 6.846 59.7167 6.846C60.3827 6.846 60.6887 7.386 60.6887 8.142V13.506C60.6887 14.1 60.4727 14.568 60.0227 14.946V15H62.8847V14.946C62.4887 14.622 62.2727 14.118 62.2727 13.488V7.566C62.2727 6.468 61.6967 5.676 60.6707 5.676C59.6807 5.676 58.4747 6.702 57.7547 7.71L57.7367 7.548C57.7367 6.468 57.1247 5.676 56.1347 5.676C55.1267 5.676 53.9207 6.702 53.1827 7.71L53.1647 7.692C53.1827 7.494 53.1827 7.152 53.1827 6.81V5.676H53.1467C52.6247 6.234 51.6887 6.63 50.8967 6.63V6.684C51.4007 6.954 51.6167 7.314 51.6167 8.07V13.488C51.6167 14.1 51.3287 14.586 50.8967 14.946ZM69.9069 12.606L69.8169 12.57C69.3849 13.452 68.5749 13.956 67.6569 13.956C66.0549 13.956 65.2089 12.21 65.2089 9.906C65.2089 9.78 65.2089 9.654 65.2089 9.546H70.0149V9.258C70.0149 7.224 68.8809 5.676 67.2429 5.676C65.1729 5.676 63.6069 8.016 63.6069 10.878C63.6069 13.668 65.1729 15.27 66.9009 15.27C68.2509 15.27 69.4209 14.334 69.9069 12.606ZM66.8829 6.072C67.7649 6.072 68.3229 7.242 68.3409 9.168H65.2269C65.3709 7.08 66.0729 6.072 66.8829 6.072ZM70.6545 14.946V15H73.6245V14.946C73.1925 14.568 72.9585 14.1 72.9585 13.506V7.926C73.7505 7.116 74.4885 6.846 74.9385 6.846C75.6045 6.846 75.9285 7.386 75.9285 8.142V13.506C75.9285 14.1 75.6945 14.568 75.2625 14.946V15H78.0885V14.946C77.7105 14.622 77.5125 14.1 77.5125 13.488V7.566C77.5125 6.468 76.9005 5.676 75.9105 5.676C74.8845 5.676 73.6785 6.702 72.9405 7.71L72.9225 7.692C72.9405 7.494 72.9585 7.152 72.9585 6.81V5.676H72.9045C72.3825 6.234 71.4465 6.63 70.6545 6.63V6.684C71.1585 6.954 71.3745 7.314 71.3745 8.07V13.488C71.3745 14.1 71.0865 14.586 70.6545 14.946ZM79.4952 13.542C79.4952 14.64 80.1972 15.27 81.0972 15.27C82.0692 15.27 82.8972 14.64 83.4912 13.848L83.4372 13.794C82.9872 14.154 82.5552 14.352 82.0692 14.352C81.4752 14.352 81.1692 13.956 81.1692 13.29V6.432H83.1492V5.946H81.1692V3.354H81.0972C80.5212 4.668 79.6032 5.712 78.3612 6.342V6.432H79.4952V13.542ZM93.5317 13.218C93.9457 13.848 93.9817 14.568 93.4777 14.946V15H96.9877V14.946C96.6277 14.658 96.2317 14.208 95.5837 13.218L93.3697 9.906C93.5677 8.556 94.1617 7.656 94.5937 7.656C95.0797 7.656 95.2057 8.646 95.9437 8.646C96.3577 8.646 96.7177 8.322 96.7177 7.764C96.7177 7.098 96.1597 6.594 95.5117 6.594C94.3597 6.594 93.3877 7.908 93.0997 9.51L91.1197 6.558C90.4357 5.55 89.8417 4.668 89.8417 3.606C89.8417 2.598 90.3457 1.95 91.0117 1.95C92.0017 1.95 91.8757 3.732 93.0097 3.732C93.4957 3.732 93.8017 3.3 93.8017 2.796C93.8017 1.932 92.9377 1.266 91.8937 1.266C89.9497 1.266 88.6897 2.706 88.6897 4.632C88.6897 5.46 89.0317 6.306 89.4277 7.026C87.8617 7.674 86.3497 9.276 86.3497 11.562C86.3497 13.74 87.6997 15.27 89.3017 15.27C90.6877 15.27 92.0737 14.28 92.8657 12.21L93.5317 13.218ZM87.8797 10.842C87.8797 9.33 88.3657 8.034 89.5537 7.224C89.6077 7.314 89.6437 7.386 89.6977 7.458L92.7397 12.012C91.9297 13.362 90.9937 13.866 90.0577 13.866C88.7077 13.866 87.8797 12.624 87.8797 10.842ZM103.908 14.946C103.296 14.676 103.008 14.082 103.008 13.308V9.87C103.422 10.032 103.89 10.122 104.394 10.122C106.284 10.122 108.678 8.628 108.678 5.55C108.678 3.03 106.896 1.32 104.142 1.32C103.044 1.32 101.748 1.482 100.416 1.68V1.734C101.01 2.004 101.298 2.544 101.298 3.264V13.308C101.298 14.082 101.028 14.676 100.416 14.946V15H103.908V14.946ZM103.008 3.21C103.008 2.238 103.44 1.698 104.322 1.698C105.834 1.698 106.788 3.354 106.788 5.802C106.788 8.286 105.636 9.69 103.926 9.69C103.62 9.69 103.332 9.654 103.008 9.564V3.21ZM111.314 6.864V5.676H111.278C110.756 6.216 109.82 6.63 109.028 6.63V6.684C109.532 6.954 109.748 7.314 109.748 8.07V13.488C109.748 14.1 109.442 14.604 109.028 14.946V15H111.998V14.946C111.602 14.604 111.314 14.1 111.314 13.488V8.052C111.638 7.422 111.962 7.044 112.322 7.044C112.79 7.044 113.042 7.728 113.636 7.728C114.068 7.728 114.446 7.35 114.446 6.774C114.446 6.162 113.96 5.676 113.42 5.676C112.592 5.676 111.656 6.648 111.314 7.746H111.296C111.296 7.548 111.314 7.188 111.314 6.864ZM114.355 10.446C114.355 13.038 115.957 15.27 117.901 15.27C119.863 15.27 121.465 13.056 121.465 10.446C121.465 7.854 119.917 5.676 117.901 5.676C115.921 5.676 114.355 7.872 114.355 10.446ZM116.119 10.446C116.119 7.854 116.713 6.018 117.901 6.018C119.125 6.018 119.683 7.854 119.683 10.446C119.683 13.056 119.053 14.928 117.901 14.928C116.749 14.928 116.119 13.056 116.119 10.446ZM122.229 14.946V15H125.181V14.946C124.749 14.568 124.515 14.1 124.515 13.506V7.926C125.307 7.116 126.045 6.846 126.513 6.846C127.179 6.846 127.485 7.386 127.485 8.142V13.506C127.485 14.1 127.269 14.568 126.819 14.946V15H129.699V14.946C129.285 14.568 129.069 14.1 129.069 13.488V7.926C129.843 7.116 130.581 6.846 131.049 6.846C131.715 6.846 132.021 7.386 132.021 8.142V13.506C132.021 14.1 131.805 14.568 131.355 14.946V15H134.217V14.946C133.821 14.622 133.605 14.118 133.605 13.488V7.566C133.605 6.468 133.029 5.676 132.003 5.676C131.013 5.676 129.807 6.702 129.087 7.71L129.069 7.548C129.069 6.468 128.457 5.676 127.467 5.676C126.459 5.676 125.253 6.702 124.515 7.71L124.497 7.692C124.515 7.494 124.515 7.152 124.515 6.81V5.676H124.479C123.957 6.234 123.021 6.63 122.229 6.63V6.684C122.733 6.954 122.949 7.314 122.949 8.07V13.488C122.949 14.1 122.661 14.586 122.229 14.946ZM134.957 10.446C134.957 13.038 136.559 15.27 138.503 15.27C140.465 15.27 142.067 13.056 142.067 10.446C142.067 7.854 140.519 5.676 138.503 5.676C136.523 5.676 134.957 7.872 134.957 10.446ZM136.721 10.446C136.721 7.854 137.315 6.018 138.503 6.018C139.727 6.018 140.285 7.854 140.285 10.446C140.285 13.056 139.655 14.928 138.503 14.928C137.351 14.928 136.721 13.056 136.721 10.446ZM143.532 13.542C143.532 14.64 144.234 15.27 145.134 15.27C146.106 15.27 146.934 14.64 147.528 13.848L147.474 13.794C147.024 14.154 146.592 14.352 146.106 14.352C145.512 14.352 145.206 13.956 145.206 13.29V6.432H147.186V5.946H145.206V3.354H145.134C144.558 4.668 143.64 5.712 142.398 6.342V6.432H143.532V13.542ZM148.998 4.398C149.574 4.398 150.024 3.876 150.024 3.264C150.024 2.616 149.574 2.112 148.998 2.112C148.44 2.112 148.008 2.616 148.008 3.264C148.008 3.876 148.44 4.398 148.998 4.398ZM147.666 15H150.492V14.946C150.132 14.712 149.934 14.19 149.934 13.488V5.676H149.898C149.376 6.198 148.44 6.63 147.648 6.63V6.684C148.188 6.936 148.314 7.584 148.314 8.178V13.488C148.314 14.19 148.08 14.694 147.666 14.946V15ZM151.305 10.446C151.305 13.038 152.907 15.27 154.851 15.27C156.813 15.27 158.415 13.056 158.415 10.446C158.415 7.854 156.867 5.676 154.851 5.676C152.871 5.676 151.305 7.872 151.305 10.446ZM153.069 10.446C153.069 7.854 153.663 6.018 154.851 6.018C156.075 6.018 156.633 7.854 156.633 10.446C156.633 13.056 156.003 14.928 154.851 14.928C153.699 14.928 153.069 13.056 153.069 10.446ZM159.178 14.946V15H162.148V14.946C161.716 14.568 161.482 14.1 161.482 13.506V7.926C162.274 7.116 163.012 6.846 163.462 6.846C164.128 6.846 164.452 7.386 164.452 8.142V13.506C164.452 14.1 164.218 14.568 163.786 14.946V15H166.612V14.946C166.234 14.622 166.036 14.1 166.036 13.488V7.566C166.036 6.468 165.424 5.676 164.434 5.676C163.408 5.676 162.202 6.702 161.464 7.71L161.446 7.692C161.464 7.494 161.482 7.152 161.482 6.81V5.676H161.428C160.906 6.234 159.97 6.63 159.178 6.63V6.684C159.682 6.954 159.898 7.314 159.898 8.07V13.488C159.898 14.1 159.61 14.586 159.178 14.946ZM1.548 35.992C1.944 36.676 2.574 37.198 3.636 37.198C6.21 37.198 7.65 34.516 7.65 31.744C7.65 29.422 6.498 27.676 5.004 27.676C3.942 27.676 3.042 28.576 2.43 29.476V29.458C2.448 29.206 2.448 28.774 2.448 28.45V22.78H2.394C1.872 23.32 0.954 23.734 0.198 23.734V23.788C0.612 24.04 0.864 24.562 0.864 25.282V37.126H0.918L1.548 35.992ZM5.976 32.374C5.994 34.966 4.914 36.892 3.564 36.892C2.88 36.892 2.448 36.388 2.448 35.488V29.692C3.06 29.044 3.474 28.81 4.068 28.828C5.202 28.828 5.958 30.106 5.976 32.374ZM11.2749 37.828L14.0469 29.782C14.2809 29.152 14.7129 28.198 15.0909 28V27.946H13.2009V28C13.6329 28.324 13.8669 28.972 13.5789 29.764L11.9589 34.516L10.3209 29.764C10.0149 28.882 10.2669 28.306 10.7529 28V27.946H7.53089V28C7.90889 28.234 8.17889 28.666 8.57489 29.764L11.1489 36.874L10.8789 37.684C10.4649 38.998 9.87089 39.916 9.09689 39.934C8.30489 39.934 8.46689 38.638 7.62089 38.638C7.22489 38.638 6.90089 39.016 6.90089 39.52C6.90089 40.222 7.63889 40.762 8.53889 40.762C9.81689 40.762 10.6449 39.664 11.2749 37.828ZM17.6753 36.82C18.6833 37 20.1053 37.18 21.4913 37.18C24.5333 37.18 27.2153 34.948 27.2153 30.178C27.2153 26.038 25.1093 23.32 21.2393 23.32C19.8893 23.32 18.7913 23.5 17.6753 23.68V23.734C18.2693 24.004 18.5573 24.688 18.5573 25.264V35.236C18.5573 35.974 18.2693 36.496 17.6753 36.766V36.82ZM20.2853 25.354C20.2853 24.292 20.7173 23.752 21.6713 23.752C23.9753 23.752 25.2353 26.308 25.2353 30.574C25.2353 35.02 23.9933 36.73 21.7613 36.73C20.7893 36.73 20.2853 36.082 20.2853 34.984V25.354ZM34.3991 34.606L34.3091 34.57C33.8771 35.452 33.0671 35.956 32.1491 35.956C30.5471 35.956 29.7011 34.21 29.7011 31.906C29.7011 31.78 29.7011 31.654 29.7011 31.546H34.5071V31.258C34.5071 29.224 33.3731 27.676 31.7351 27.676C29.6651 27.676 28.0991 30.016 28.0991 32.878C28.0991 35.668 29.6651 37.27 31.3931 37.27C32.7431 37.27 33.9131 36.334 34.3991 34.606ZM31.3751 28.072C32.2571 28.072 32.8151 29.242 32.8331 31.168H29.7191C29.8631 29.08 30.5651 28.072 31.3751 28.072ZM35.1467 36.946V37H38.1167V36.946C37.6847 36.568 37.4507 36.1 37.4507 35.506V29.926C38.2427 29.116 38.9807 28.846 39.4307 28.846C40.0967 28.846 40.4207 29.386 40.4207 30.142V35.506C40.4207 36.1 40.1867 36.568 39.7547 36.946V37H42.5807V36.946C42.2027 36.622 42.0047 36.1 42.0047 35.488V29.566C42.0047 28.468 41.3927 27.676 40.4027 27.676C39.3767 27.676 38.1707 28.702 37.4327 29.71L37.4147 29.692C37.4327 29.494 37.4507 29.152 37.4507 28.81V27.676H37.3967C36.8747 28.234 35.9387 28.63 35.1467 28.63V28.684C35.6507 28.954 35.8667 29.314 35.8667 30.07V35.488C35.8667 36.1 35.5787 36.586 35.1467 36.946ZM44.6894 26.398C45.2654 26.398 45.7154 25.876 45.7154 25.264C45.7154 24.616 45.2654 24.112 44.6894 24.112C44.1314 24.112 43.6994 24.616 43.6994 25.264C43.6994 25.876 44.1314 26.398 44.6894 26.398ZM43.3574 37H46.1834V36.946C45.8234 36.712 45.6254 36.19 45.6254 35.488V27.676H45.5894C45.0674 28.198 44.1314 28.63 43.3394 28.63V28.684C43.8794 28.936 44.0054 29.584 44.0054 30.178V35.488C44.0054 36.19 43.7714 36.694 43.3574 36.946V37ZM52.612 34.282C52.612 32.716 51.478 32.14 50.38 31.654C49.336 31.168 48.31 30.79 48.31 29.692C48.31 28.864 48.832 28.108 49.75 28.108C50.578 28.108 51.28 28.828 51.496 30.106H51.55L52.108 27.928C51.55 27.766 50.956 27.676 50.362 27.676C48.49 27.676 47.176 28.882 47.176 30.484C47.176 32.086 48.292 32.68 49.39 33.184C50.434 33.634 51.478 34.03 51.478 35.146C51.478 36.19 50.812 36.838 49.822 36.838C48.652 36.838 47.824 35.956 47.536 34.318H47.464L46.582 36.766C47.59 37.108 48.508 37.252 49.282 37.252C51.172 37.252 52.612 36.172 52.612 34.282ZM59.5931 36.946C59.0711 36.694 58.6931 36.154 58.6931 35.308V31.006L59.6651 29.746L62.2211 35.074C62.6171 35.902 62.7611 36.388 62.1131 36.928V37H65.4251V36.928C65.1191 36.712 64.6151 36.028 64.2371 35.272L60.8351 28.234L62.4551 26.146C63.4451 24.886 64.4711 23.986 65.1731 23.554V23.5H62.2031V23.554C62.8331 23.968 62.8691 24.922 62.1851 25.804L58.6931 30.34V25.192C58.6931 24.508 58.9811 23.824 59.5931 23.554V23.5H56.1011V23.554C56.7131 23.824 56.9831 24.508 56.9831 25.192V35.308C56.9831 36.154 56.6051 36.694 56.1011 36.946V37H59.5931V36.946ZM70.4048 36.064V37.27H70.4588C71.0888 36.82 71.8988 36.604 72.6908 36.604V36.55C72.2048 36.28 71.9888 35.884 71.9888 35.092V27.676H71.9348C71.4308 28.216 70.5308 28.63 69.7568 28.63V28.684C70.2248 28.936 70.4048 29.35 70.4048 30.142V34.948C69.6128 35.758 68.8928 36.1 68.4248 36.1C67.7588 36.1 67.4528 35.56 67.4528 34.804V27.676H67.3988C66.8948 28.216 65.9948 28.63 65.2208 28.63V28.684C65.6708 28.936 65.8868 29.35 65.8868 30.142V35.38C65.8868 36.478 66.4448 37.27 67.4528 37.27C68.4968 37.27 69.6848 36.154 70.4228 35.146H70.4408C70.4228 35.362 70.4048 35.722 70.4048 36.064ZM73.3615 36.946V37H76.3315V36.946C75.8995 36.568 75.6655 36.1 75.6655 35.506V29.926C76.4575 29.116 77.1955 28.846 77.6455 28.846C78.3115 28.846 78.6355 29.386 78.6355 30.142V35.506C78.6355 36.1 78.4015 36.568 77.9695 36.946V37H80.7955V36.946C80.4175 36.622 80.2195 36.1 80.2195 35.488V29.566C80.2195 28.468 79.6075 27.676 78.6175 27.676C77.5915 27.676 76.3855 28.702 75.6475 29.71L75.6295 29.692C75.6475 29.494 75.6655 29.152 75.6655 28.81V27.676H75.6115C75.0895 28.234 74.1535 28.63 73.3615 28.63V28.684C73.8655 28.954 74.0815 29.314 74.0815 30.07V35.488C74.0815 36.1 73.7935 36.586 73.3615 36.946ZM82.9042 26.398C83.4802 26.398 83.9302 25.876 83.9302 25.264C83.9302 24.616 83.4802 24.112 82.9042 24.112C82.3462 24.112 81.9142 24.616 81.9142 25.264C81.9142 25.876 82.3462 26.398 82.9042 26.398ZM81.5722 37H84.3982V36.946C84.0382 36.712 83.8402 36.19 83.8402 35.488V27.676H83.8042C83.2822 28.198 82.3462 28.63 81.5542 28.63V28.684C82.0942 28.936 82.2202 29.584 82.2202 30.178V35.488C82.2202 36.19 81.9862 36.694 81.5722 36.946V37ZM85.8409 35.542C85.8409 36.64 86.5429 37.27 87.4429 37.27C88.4149 37.27 89.2429 36.64 89.8369 35.848L89.7829 35.794C89.3329 36.154 88.9009 36.352 88.4149 36.352C87.8209 36.352 87.5149 35.956 87.5149 35.29V28.432H89.4949V27.946H87.5149V25.354H87.4429C86.8669 26.668 85.9489 27.712 84.7069 28.342V28.432H85.8409V35.542ZM95.5905 34.282C95.5905 32.716 94.4565 32.14 93.3585 31.654C92.3145 31.168 91.2885 30.79 91.2885 29.692C91.2885 28.864 91.8105 28.108 92.7285 28.108C93.5565 28.108 94.2585 28.828 94.4745 30.106H94.5285L95.0865 27.928C94.5285 27.766 93.9345 27.676 93.3405 27.676C91.4685 27.676 90.1545 28.882 90.1545 30.484C90.1545 32.086 91.2705 32.68 92.3685 33.184C93.4125 33.634 94.4565 34.03 94.4565 35.146C94.4565 36.19 93.7905 36.838 92.8005 36.838C91.6305 36.838 90.8025 35.956 90.5145 34.318H90.4425L89.5605 36.766C90.5685 37.108 91.4865 37.252 92.2605 37.252C94.1505 37.252 95.5905 36.172 95.5905 34.282ZM98.9018 37.828L101.674 29.782C101.908 29.152 102.34 28.198 102.718 28V27.946H100.828V28C101.26 28.324 101.494 28.972 101.206 29.764L99.5858 34.516L97.9478 29.764C97.6418 28.882 97.8938 28.306 98.3798 28V27.946H95.1578V28C95.5358 28.234 95.8058 28.666 96.2018 29.764L98.7758 36.874L98.5058 37.684C98.0918 38.998 97.4978 39.916 96.7238 39.934C95.9318 39.934 96.0938 38.638 95.2478 38.638C94.8518 38.638 94.5278 39.016 94.5278 39.52C94.5278 40.222 95.2658 40.762 96.1658 40.762C97.4438 40.762 98.2718 39.664 98.9018 37.828ZM102.629 36.946V37H105.599V36.946C105.167 36.568 104.933 36.1 104.933 35.506V29.926C105.725 29.116 106.463 28.846 106.913 28.846C107.579 28.846 107.903 29.386 107.903 30.142V35.506C107.903 36.1 107.669 36.568 107.237 36.946V37H110.063V36.946C109.685 36.622 109.487 36.1 109.487 35.488V29.566C109.487 28.468 108.875 27.676 107.885 27.676C106.859 27.676 105.653 28.702 104.915 29.71L104.897 29.692C104.915 29.494 104.933 29.152 104.933 28.81V27.676H104.879C104.357 28.234 103.421 28.63 102.629 28.63V28.684C103.133 28.954 103.349 29.314 103.349 30.07V35.488C103.349 36.1 103.061 36.586 102.629 36.946Z" fill="black"/>
</svg>
